<svg width="2402" height="378" viewBox="0 0 2402 378" fill="none" xmlns="http://www.w3.org/2000/svg">
<path d="M4.76837e-07 368V-3.05176e-05H93V368H4.76837e-07ZM220 368L117.5 213H218.5L327 368H220ZM69.5 256V184.5H157C168 184.5 177.5 182.333 185.5 178C193.5 173.667 199.667 167.5 204 159.5C208.667 151.5 211 142.167 211 131.5C211 120.5 208.667 111 204 103C199.667 95 193.5 88.8333 185.5 84.5C177.5 80.1666 168 78 157 78H69.5V-3.05176e-05H151.5C183.167 -3.05176e-05 210.5 4.83331 233.5 14.5C256.5 23.8333 274.167 37.8333 286.5 56.5C298.833 74.8333 305 97.6667 305 125V133C305 160.333 298.667 183.167 286 201.5C273.667 219.5 256 233.167 233 242.5C210.333 251.5 183.167 256 151.5 256H69.5ZM498.734 378C474.401 378 452.734 374.333 433.734 367C414.734 359.667 398.568 349.5 385.234 336.5C372.234 323.5 362.234 308.5 355.234 291.5C348.568 274.5 345.234 256.333 345.234 237V225C345.234 205 348.734 186.333 355.734 169C363.068 151.667 373.401 136.5 386.734 123.5C400.068 110.5 416.234 100.333 435.234 93C454.234 85.6667 475.401 82 498.734 82C522.401 82 543.568 85.6667 562.234 93C581.234 100.333 597.401 110.5 610.734 123.5C624.068 136.5 634.234 151.667 641.234 169C648.568 186.333 652.234 205 652.234 225V237C652.234 256.333 648.734 274.5 641.734 291.5C635.068 308.5 625.068 323.5 611.734 336.5C598.734 349.5 582.734 359.667 563.734 367C544.734 374.333 523.068 378 498.734 378ZM498.734 302C512.734 302 524.234 299 533.234 293C542.568 287 549.568 278.667 554.234 268C558.901 257 561.234 244.667 561.234 231C561.234 216.667 558.734 204.167 553.734 193.5C549.068 182.5 542.068 173.833 532.734 167.5C523.401 161.167 512.068 158 498.734 158C485.401 158 474.068 161.167 464.734 167.5C455.401 173.833 448.234 182.5 443.234 193.5C438.568 204.167 436.234 216.667 436.234 231C436.234 244.667 438.568 257 443.234 268C447.901 278.667 454.901 287 464.234 293C473.568 299 485.068 302 498.734 302ZM839.555 378C815.221 378 793.555 374.333 774.555 367C755.555 359.667 739.388 349.5 726.055 336.5C713.055 323.5 703.055 308.5 696.055 291.5C689.388 274.5 686.055 256.333 686.055 237V225C686.055 205 689.555 186.333 696.555 169C703.888 151.667 714.221 136.5 727.555 123.5C740.888 110.5 757.055 100.333 776.055 93C795.055 85.6667 816.221 82 839.555 82C863.221 82 884.388 85.6667 903.055 93C922.055 100.333 938.221 110.5 951.555 123.5C964.888 136.5 975.055 151.667 982.055 169C989.388 186.333 993.055 205 993.055 225V237C993.055 256.333 989.555 274.5 982.555 291.5C975.888 308.5 965.888 323.5 952.555 336.5C939.555 349.5 923.555 359.667 904.555 367C885.555 374.333 863.888 378 839.555 378ZM839.555 302C853.555 302 865.055 299 874.055 293C883.388 287 890.388 278.667 895.055 268C899.721 257 902.055 244.667 902.055 231C902.055 216.667 899.555 204.167 894.555 193.5C889.888 182.5 882.888 173.833 873.555 167.5C864.221 161.167 852.888 158 839.555 158C826.221 158 814.888 161.167 805.555 167.5C796.221 173.833 789.055 182.5 784.055 193.5C779.388 204.167 777.055 216.667 777.055 231C777.055 244.667 779.388 257 784.055 268C788.721 278.667 795.721 287 805.055 293C814.388 299 825.888 302 839.555 302ZM1238.88 368L1157.38 239H1120.38L1228.38 92H1323.38L1220.88 230.5V186.5L1340.38 368H1238.88ZM1042.87 368V2.99999H1133.88V368H1042.87Z" fill="white"/>
<path d="M1609.44 368V2.99999H1702.44V368H1609.44ZM1377.44 368V2.99999H1470.44V368H1377.44ZM1454.44 224.5V143.5H1625.44V224.5H1454.44ZM1864.87 377C1833.53 377 1809.2 366.833 1791.87 346.5C1774.87 325.833 1766.37 294.333 1766.37 252V92H1857.37V254.5C1857.37 266.833 1861.03 276.833 1868.37 284.5C1875.7 292.167 1885.53 296 1897.87 296C1910.2 296 1920.2 292.167 1927.87 284.5C1935.53 276.833 1939.37 266.5 1939.37 253.5V92H2030.37V368H1958.37V252H1963.37C1963.37 280.333 1959.7 303.833 1952.37 322.5C1945.37 340.833 1934.87 354.5 1920.87 363.5C1906.87 372.5 1889.53 377 1868.87 377H1864.87ZM2275.56 377C2252.9 377 2233.06 372.333 2216.06 363C2199.4 353.667 2186.23 340 2176.56 322C2167.23 304 2162.23 282 2161.56 256H2169.56V368H2097.56V2.99999H2188.56V191L2168.56 211C2169.56 184 2174.73 161 2184.06 142C2193.4 123 2206.23 108.667 2222.56 99C2239.23 89 2258.4 84 2280.06 84C2298.73 84 2315.56 87.5 2330.56 94.5C2345.56 101.167 2358.23 110.833 2368.56 123.5C2379.23 135.833 2387.4 150.5 2393.06 167.5C2398.73 184.5 2401.56 203.167 2401.56 223.5V235.5C2401.56 255.833 2398.73 274.667 2393.06 292C2387.4 309 2379.06 324 2368.06 337C2357.06 349.667 2343.73 359.5 2328.06 366.5C2312.73 373.5 2295.23 377 2275.56 377ZM2249.56 302C2261.56 302 2272.06 299 2281.06 293C2290.4 286.667 2297.56 278 2302.56 267C2307.9 256 2310.56 243.5 2310.56 229.5C2310.56 215.167 2307.9 202.833 2302.56 192.5C2297.56 181.833 2290.56 173.667 2281.56 168C2272.56 162 2261.9 159 2249.56 159C2238.56 159 2228.23 161.5 2218.56 166.5C2209.23 171.5 2201.56 178.833 2195.56 188.5C2189.56 198.167 2186.56 209.833 2186.56 223.5V240.5C2186.56 253.5 2189.73 264.667 2196.06 274C2202.4 283 2210.4 290 2220.06 295C2229.73 299.667 2239.56 302 2249.56 302Z" fill="#6366F1"/>
</svg>
